<svg width="400" height="400" viewBox="0 0 400 400" fill="none" xmlns="http://www.w3.org/2000/svg">
<path d="M85.8379 312.52V316.177H60.9893V312.52H85.8379ZM61.8096 290.234V340H57.9131V290.234H61.8096ZM89.085 290.234V340H85.1543V290.234H89.085ZM128.022 290.234L140.361 317.271L152.769 290.234H157.28L142.31 321.27V340H138.413V321.27L123.442 290.234H128.022ZM204.079 340H194.748L194.782 336.343H204.079C207.064 336.343 209.605 335.716 211.701 334.463C213.798 333.21 215.393 331.375 216.486 328.96C217.603 326.545 218.161 323.605 218.161 320.142V310.024C218.161 307.381 217.842 305.057 217.204 303.052C216.589 301.024 215.677 299.338 214.47 297.993C213.285 296.626 211.838 295.601 210.129 294.917C208.42 294.233 206.494 293.892 204.353 293.892H194.543V290.234H204.353C206.996 290.234 209.4 290.667 211.564 291.533C213.729 292.399 215.586 293.675 217.136 295.361C218.708 297.048 219.916 299.121 220.759 301.582C221.602 304.043 222.023 306.88 222.023 310.093V320.142C222.023 323.354 221.602 326.203 220.759 328.687C219.916 331.147 218.708 333.221 217.136 334.907C215.563 336.571 213.672 337.835 211.462 338.701C209.274 339.567 206.813 340 204.079 340ZM196.56 290.234V340H192.663V290.234H196.56ZM260.517 290.234H274.154C277.094 290.234 279.623 290.793 281.742 291.909C283.884 293.026 285.525 294.678 286.664 296.865C287.826 299.053 288.407 301.73 288.407 304.897C288.407 307.244 287.986 309.375 287.143 311.289C286.322 313.203 285.194 314.798 283.759 316.074C282.323 317.35 280.637 318.228 278.7 318.706L277.401 319.287H263.183L263.114 315.63H274.804C276.968 315.63 278.769 315.129 280.204 314.126C281.64 313.123 282.711 311.802 283.417 310.161C284.146 308.521 284.511 306.766 284.511 304.897C284.511 302.642 284.112 300.693 283.314 299.053C282.54 297.412 281.378 296.147 279.828 295.259C278.301 294.347 276.41 293.892 274.154 293.892H264.413V340H260.517V290.234ZM286.049 340L275.351 317.749L279.521 317.715L290.185 339.556V340H286.049ZM341.085 293.242L326.764 340H322.73L338.556 290.234H341.324L341.085 293.242ZM353.971 340L339.615 293.242L339.444 290.234H342.179L358.004 340H353.971ZM351.715 322.432V326.089H329.293V322.432H351.715Z" fill="#333333"/>
<path d="M242 162.236C242 162.236 242 179.512 242 210.076C242 240.641 197 240.641 197 210.076C197 179.512 197 133 197 133" stroke="#333333" stroke-width="6"/>
<path d="M153 131.528C153 131.528 153 148.977 153 179.847C153 210.718 197 210.718 197 179.847C197 148.977 197 102 197 102" stroke="#333333" stroke-width="6"/>
<path d="M171 133H152V146C166.527 142.484 170.838 139.671 171 133Z" fill="#333333" stroke="#333333" stroke-width="4" stroke-linecap="round"/>
<path d="M168 135H163L164.25 138L168 135Z" fill="white"/>
<path d="M215 103H196V117C210.527 113.213 214.838 110.184 215 103Z" fill="#333333" stroke="#333333" stroke-width="4" stroke-linecap="round"/>
<path d="M212 106H207L208.25 109L212 106Z" fill="white"/>
<path d="M260 164H241V177C255.527 173.484 259.838 170.671 260 164Z" fill="#333333" stroke="#333333" stroke-width="4" stroke-linecap="round"/>
<path d="M257 167H252L253.25 169L257 167Z" fill="white"/>
</svg>
